<mxfile host="app.diagrams.net" modified="2024-04-13T16:36:25.385Z" agent="Mozilla/5.0 (Windows NT 10.0; Win64; x64) AppleWebKit/537.36 (KHTML, like Gecko) Chrome/123.0.0.0 Safari/537.36" etag="ikoxSjn2Vz7LACqul6sV" version="24.2.3" type="github">
  <diagram name="Page-1" id="g-yjPDPW-HHgWMc1HcrO">
    <mxGraphModel dx="808" dy="428" grid="1" gridSize="10" guides="1" tooltips="1" connect="1" arrows="1" fold="1" page="1" pageScale="1" pageWidth="827" pageHeight="1169" math="0" shadow="0">
      <root>
        <mxCell id="0" />
        <mxCell id="1" parent="0" />
        <mxCell id="AwlRGdIBeglMRf0ub5hm-2" value="" style="endArrow=classic;html=1;rounded=0;" edge="1" parent="1">
          <mxGeometry width="50" height="50" relative="1" as="geometry">
            <mxPoint x="80" y="95" as="sourcePoint" />
            <mxPoint x="80" y="215" as="targetPoint" />
          </mxGeometry>
        </mxCell>
        <mxCell id="AwlRGdIBeglMRf0ub5hm-3" value="" style="endArrow=classic;html=1;rounded=0;" edge="1" parent="1">
          <mxGeometry width="50" height="50" relative="1" as="geometry">
            <mxPoint x="80" y="95" as="sourcePoint" />
            <mxPoint x="200" y="95" as="targetPoint" />
          </mxGeometry>
        </mxCell>
        <mxCell id="AwlRGdIBeglMRf0ub5hm-4" value="X" style="text;html=1;align=center;verticalAlign=middle;whiteSpace=wrap;rounded=0;" vertex="1" parent="1">
          <mxGeometry x="74" y="65" width="60" height="30" as="geometry" />
        </mxCell>
        <mxCell id="AwlRGdIBeglMRf0ub5hm-5" value="Y" style="text;html=1;align=center;verticalAlign=middle;whiteSpace=wrap;rounded=0;" vertex="1" parent="1">
          <mxGeometry x="30" y="95" width="60" height="30" as="geometry" />
        </mxCell>
        <mxCell id="AwlRGdIBeglMRf0ub5hm-7" value="0,0" style="text;html=1;align=center;verticalAlign=middle;whiteSpace=wrap;rounded=0;" vertex="1" parent="1">
          <mxGeometry x="30" y="65" width="60" height="30" as="geometry" />
        </mxCell>
        <mxCell id="AwlRGdIBeglMRf0ub5hm-10" value="&lt;h1 style=&quot;margin-top: 0px;&quot;&gt;Origin Point&lt;/h1&gt;&lt;div&gt;0,0 is drawn from the top left, as you go down or move to the right the position values increase, whilst going the other direction it decreases.&lt;/div&gt;" style="text;html=1;whiteSpace=wrap;overflow=hidden;rounded=0;" vertex="1" parent="1">
          <mxGeometry x="220" y="30" width="180" height="120" as="geometry" />
        </mxCell>
        <mxCell id="AwlRGdIBeglMRf0ub5hm-13" value="Bullet" style="text;html=1;align=center;verticalAlign=middle;whiteSpace=wrap;rounded=0;" vertex="1" parent="1">
          <mxGeometry x="150" y="150" width="60" height="30" as="geometry" />
        </mxCell>
        <mxCell id="AwlRGdIBeglMRf0ub5hm-14" value="" style="ellipse;whiteSpace=wrap;html=1;aspect=fixed;" vertex="1" parent="1">
          <mxGeometry x="130" y="155" width="20" height="20" as="geometry" />
        </mxCell>
        <mxCell id="AwlRGdIBeglMRf0ub5hm-15" value="" style="endArrow=none;dashed=1;html=1;dashPattern=1 3;strokeWidth=2;rounded=0;exitX=0.894;exitY=-0.017;exitDx=0;exitDy=0;exitPerimeter=0;entryX=0;entryY=0;entryDx=0;entryDy=0;" edge="1" parent="1" target="AwlRGdIBeglMRf0ub5hm-14">
          <mxGeometry width="50" height="50" relative="1" as="geometry">
            <mxPoint x="81.82" y="99.49000000000001" as="sourcePoint" />
            <mxPoint x="198.18" y="130" as="targetPoint" />
          </mxGeometry>
        </mxCell>
        <mxCell id="AwlRGdIBeglMRf0ub5hm-16" value="If the bullets position is greater and or lower than the screen width we remove the bullet." style="text;html=1;align=center;verticalAlign=middle;whiteSpace=wrap;rounded=0;" vertex="1" parent="1">
          <mxGeometry x="210" y="150" width="180" height="80" as="geometry" />
        </mxCell>
        <mxCell id="AwlRGdIBeglMRf0ub5hm-17" value="&lt;h1 style=&quot;margin-top: 0px;&quot;&gt;Code example:&lt;/h1&gt;&lt;div&gt;if (bullet.position.x &amp;gt;= screenwidth || bullet.position.x &amp;lt;= 0 || bullet.position.y &amp;gt;= screenheight || bullet.position.y &amp;lt;= 0)&lt;/div&gt;&lt;div&gt;{&lt;/div&gt;&lt;div&gt;&lt;span style=&quot;white-space: pre;&quot;&gt;&#x9;&lt;/span&gt;bullet.isActive = false;&lt;br&gt;&lt;/div&gt;&lt;div&gt;}&lt;/div&gt;" style="text;html=1;whiteSpace=wrap;overflow=hidden;rounded=0;" vertex="1" parent="1">
          <mxGeometry x="74" y="230" width="320" height="150" as="geometry" />
        </mxCell>
      </root>
    </mxGraphModel>
  </diagram>
</mxfile>
